<svg width="36" height="160" viewBox="0 0 36 160" fill="none" xmlns="http://www.w3.org/2000/svg">
<path fill-rule="evenodd" clip-rule="evenodd" d="M35.18 9.74L35.46 10.24C35.8126 10.8477 35.9988 11.5375 36 12.24V27.74C35.9942 28.442 35.8082 29.1306 35.46 29.74L35.16 30.24C34.8174 30.852 34.312 31.3574 33.7 31.7L20.28 39.46C19.6724 39.8126 18.9826 39.9988 18.28 40H17.72C17.0164 40.0066 16.3246 39.8198 15.72 39.46L2.28 31.72C1.68098 31.3604 1.17958 30.859 0.82 30.26L0.54 29.76C0.1875 29.1524 0.00124 28.4626 0 27.76V12.26C0.00124 11.5575 0.1875 10.8677 0.54 10.26L0.82 9.76C1.17052 9.15394 1.67394 8.65052 2.28 8.3L15.7 0.54C16.3076 0.1875 16.9974 0.00124 17.7 0H18.28C18.9826 0.00124 19.6724 0.1875 20.28 0.54L33.7 8.28C34.3094 8.63286 34.8188 9.13538 35.18 9.74ZM18.28 4H17.7L6 10.76L18 17.68L30 10.76L18.28 4ZM31.7 28.24L20 35V21.16L32 14.22V27.74L31.7 28.24ZM18 60L18 160H20L20 60H18Z" fill="#EFEFEF"/>
</svg>
